# xmcd
# 
# Track frame offsets:
#     183
#     16263
#     51210
#     82820
#     98800
#     117178
#     131810
#     151353
#     168988
#     183373
# 
# Disc length: 2764
# 
# Revision: 1
# Processed by: cddbd v1.5.2PL0 Copyright (c) Steve Scherf et al.
# Submitted via: BonkEnc v1.0.8
# 
DISCID=740aca0a
DTITLE=Christof Sänger, Christian von Kaphengst, Heinrich Köbberling - Chorinho
DYEAR=1992
DGENRE=Contemporary Jazz
TTITLE0=Montego
TTITLE1=Soul Eyes
TTITLE2=Body And Soul
TTITLE3=Chorinho (Speedy Gonzales)
TTITLE4=The Way You Look Tonight
TTITLE5=Giant Steps
TTITLE6=City Scape
TTITLE7=Blues
TTITLE8=The End Of A Love Affair
TTITLE9=Saudade
EXTD=YEAR: 1993
EXTT0=
EXTT1=
EXTT2=
EXTT3=
EXTT4=
EXTT5=
EXTT6=
EXTT7=
EXTT8=
EXTT9=
PLAYORDER=
